<?xml version="1.0" encoding="UTF-8"?>
<svg xmlns="http://www.w3.org/2000/svg" viewBox="0 0 207.66 136.14">
  <defs>
    <style>
      .cls-1 {
        fill: gray;
        stroke: #3400ca;
        stroke-width: .5px;
      }

      .cls-1, .cls-2, .cls-3 {
        stroke-miterlimit: 10;
      }

      .cls-4 {
        letter-spacing: -.02em;
      }

      .cls-4, .cls-5 {
        font-family: TimesNewRomanPS-ItalicMT, 'Times New Roman';
        font-size: 11.41px;
        font-style: italic;
      }

      .cls-2 {
        fill: #ccc;
      }

      .cls-2, .cls-3 {
        stroke: #000;
        stroke-width: .25px;
      }

      .cls-3 {
        fill: none;
      }
    </style>
  </defs>
  <g id="Layer_2" data-name="Layer 2">
    <line class="cls-3" x1="13.62" y1="130.16" x2="104.57" y2="13.96"/>
    <line class="cls-3" x1="196.59" y1="130.16" x2="104.57" y2="13.96"/>
  </g>
  <g id="Layer_3" data-name="Layer 3">
    <line class="cls-3" x1="39.76" y1="96.76" x2="140.78" y2="59.68"/>
    <line class="cls-3" x1="169.82" y1="96.36" x2="68.64" y2="59.87"/>
    <polygon class="cls-2" points="104.57 13.96 68.64 59.87 140.78 59.68 104.57 13.96"/>
  </g>
  <g id="Layer_4" data-name="Layer 4">
    <circle class="cls-1" cx="13.94" cy="129.74" r="2.43"/>
    <circle class="cls-1" cx="196.25" cy="129.74" r="2.43"/>
    <circle class="cls-1" cx="39.76" cy="96.76" r="2.43"/>
    <circle class="cls-1" cx="169.82" cy="96.36" r="2.43"/>
    <circle class="cls-1" cx="104.71" cy="72.92" r="2.43"/>
    <circle class="cls-1" cx="68.64" cy="59.87" r="2.43"/>
    <circle class="cls-1" cx="140.78" cy="59.68" r="2.43"/>
    <circle class="cls-1" cx="104.57" cy="13.96" r="2.43"/>
    <text class="cls-4" transform="translate(102.15 9.48)"><tspan x="0" y="0">A</tspan></text>
    <text class="cls-5" transform="translate(55.36 63.64)"><tspan x="0" y="0">B</tspan></text>
    <text class="cls-5" transform="translate(146.24 63.63)"><tspan x="0" y="0">C</tspan></text>
    <text class="cls-5" transform="translate(100.05 85.82)"><tspan x="0" y="0">H</tspan></text>
    <text class="cls-5" transform="translate(175.83 99.65)"><tspan x="0" y="0">G</tspan></text>
    <text class="cls-5" transform="translate(26.32 100.96)"><tspan x="0" y="0">F</tspan></text>
    <text class="cls-5" transform="translate(.35 132.64)"><tspan x="0" y="0">D</tspan></text>
    <text class="cls-5" transform="translate(200.45 132.64)"><tspan x="0" y="0">E</tspan></text>
  </g>
</svg>