<?xml version="1.0" encoding="UTF-8"?>
<svg xmlns="http://www.w3.org/2000/svg" viewBox="0 0 265.06 123.87">
  <defs>
    <style>
      .cls-1 {
        fill: gray;
        stroke: #3400ca;
        stroke-width: .5px;
      }

      .cls-1, .cls-2 {
        stroke-miterlimit: 10;
      }

      .cls-3 {
        letter-spacing: -.02em;
      }

      .cls-3, .cls-4 {
        font-family: TimesNewRomanPS-ItalicMT, 'Times New Roman';
        font-size: 11.41px;
        font-style: italic;
      }

      .cls-2 {
        fill: none;
        stroke: #000;
        stroke-width: .25px;
      }

      .cls-5 {
        fill: #006837;
      }
    </style>
  </defs>
  <g id="Layer_2" data-name="Layer 2">
    <line class="cls-2" x1="9.81" y1="121.19" x2="50.66" y2="11.91"/>
    <line class="cls-2" x1="9.81" y1="121.19" x2="121.26" y2="120.64"/>
    <line class="cls-2" x1="50.66" y1="11.91" x2="121.26" y2="120.64"/>
    <line class="cls-2" x1="140.65" y1="121.19" x2="181.5" y2="11.91"/>
    <line class="cls-2" x1="140.65" y1="121.19" x2="252.09" y2="120.64"/>
    <line class="cls-2" x1="181.5" y1="11.91" x2="252.09" y2="120.64"/>
  </g>
  <g id="Layer_1" data-name="Layer 1">
    <path class="cls-5" d="M50.66,11.91l7.13,10.98c-2.12,1.38-4.6,2.11-7.13,2.11-1.57,0-3.12-.28-4.59-.83l4.59-12.27Z"/>
    <path class="cls-5" d="M181.5,11.91l7.13,10.98c-2.12,1.38-4.6,2.11-7.13,2.11-1.57,0-3.12-.28-4.59-.83l4.59-12.27Z"/>
  </g>
  <g id="Layer_3" data-name="Layer 3">
    <line class="cls-2" x1="32.15" y1="67.27" x2="28.32" y2="65.84"/>
    <line class="cls-2" x1="86.6" y1="63.51" x2="83.18" y2="65.73"/>
    <line class="cls-2" x1="162.98" y1="67.27" x2="159.16" y2="65.84"/>
    <line class="cls-2" x1="88.31" y1="66.55" x2="84.89" y2="68.78"/>
    <line class="cls-2" x1="217.65" y1="63.64" x2="214.23" y2="65.87"/>
    <line class="cls-2" x1="219.37" y1="66.68" x2="215.94" y2="68.91"/>
  </g>
  <g id="Layer_4" data-name="Layer 4">
    <circle class="cls-1" cx="50.57" cy="12.17" r="2.43"/>
    <circle class="cls-1" cx="9.81" cy="121.19" r="2.43"/>
    <circle class="cls-1" cx="121.26" cy="120.64" r="2.43"/>
    <circle class="cls-1" cx="181.63" cy="11.91" r="2.43"/>
    <circle class="cls-1" cx="140.65" cy="121.19" r="2.43"/>
    <circle class="cls-1" cx="251.96" cy="120.64" r="2.43"/>
  </g>
  <g id="Layer_5" data-name="Layer 5">
    <text class="cls-4" transform="translate(257.43 114.8)"><tspan x="0" y="0">F</tspan></text>
    <text class="cls-4" transform="translate(.26 114.63)"><tspan x="0" y="0">B</tspan></text>
    <text class="cls-4" transform="translate(135.37 114.63)"><tspan x="0" y="0">E</tspan></text>
    <text class="cls-4" transform="translate(118.26 114.63)"><tspan x="0" y="0">C</tspan></text>
    <text class="cls-4" transform="translate(188.63 9.48)"><tspan x="0" y="0">D</tspan></text>
    <text class="cls-3" transform="translate(57.79 9.74)"><tspan x="0" y="0">A</tspan></text>
  </g>
</svg>