<?xml version="1.0" encoding="UTF-8"?>
<svg xmlns="http://www.w3.org/2000/svg" viewBox="0 0 211.31 139.37">
  <defs>
    <style>
      .cls-1 {
        fill: gray;
        stroke: #3400ca;
        stroke-width: .5px;
      }

      .cls-1, .cls-2, .cls-3, .cls-4 {
        stroke-miterlimit: 10;
      }

      .cls-5 {
        letter-spacing: -.02em;
      }

      .cls-5, .cls-6 {
        font-family: TimesNewRomanPS-ItalicMT, 'Times New Roman';
        font-size: 11.41px;
        font-style: italic;
      }

      .cls-2 {
        fill: #ccc;
      }

      .cls-2, .cls-3, .cls-4 {
        stroke: #000;
        stroke-width: .25px;
      }

      .cls-3 {
        stroke-dasharray: 6.71 6.71;
      }

      .cls-3, .cls-4 {
        fill: none;
        stroke-linecap: square;
      }
    </style>
  </defs>
  <g id="Layer_3" data-name="Layer 3">
    <polygon class="cls-2" points="105.22 13.96 12.06 132.97 199.08 132.49 105.22 13.96"/>
  </g>
  <g id="Layer_5" data-name="Layer 5">
    <g>
      <line class="cls-4" x1="75.14" y1="52.38" x2="78.08" y2="54.29"/>
      <line class="cls-3" x1="83.7" y1="57.95" x2="193.33" y2="129.24"/>
      <line class="cls-4" x1="196.14" y1="131.07" x2="199.08" y2="132.97"/>
    </g>
    <g>
      <line class="cls-4" x1="135.99" y1="52.38" x2="133.06" y2="54.29"/>
      <line class="cls-3" x1="127.44" y1="57.95" x2="17.8" y2="129.24"/>
      <line class="cls-4" x1="14.99" y1="131.07" x2="12.06" y2="132.97"/>
    </g>
  </g>
  <g id="Layer_4" data-name="Layer 4">
    <circle class="cls-1" cx="105.43" cy="13.96" r="2.43"/>
    <circle class="cls-1" cx="12.06" cy="132.97" r="2.43"/>
    <circle class="cls-1" cx="199.08" cy="132.97" r="2.43"/>
    <circle class="cls-1" cx="135.93" cy="52.42" r="2.43"/>
    <circle class="cls-1" cx="75.2" cy="52.42" r="2.43"/>
    <text class="cls-6" transform="translate(.26 135.87)"><tspan x="0" y="0">B</tspan></text>
    <text class="cls-6" transform="translate(203.28 135.87)"><tspan x="0" y="0">C</tspan></text>
    <text class="cls-6" transform="translate(60.84 54.85)"><tspan x="0" y="0">D</tspan></text>
    <text class="cls-6" transform="translate(141.77 56.69)"><tspan x="0" y="0">E</tspan></text>
  </g>
  <g id="Layer_7" data-name="Layer 7">
    <text class="cls-5" transform="translate(103 9.48)"><tspan x="0" y="0">A</tspan></text>
  </g>
</svg>