<?xml version="1.0" encoding="UTF-8"?>
<svg xmlns="http://www.w3.org/2000/svg" viewBox="0 0 147.81 147.19">
  <defs>
    <style>
      .cls-1 {
        fill: gray;
        stroke: #3400ca;
        stroke-width: .5px;
      }

      .cls-1, .cls-2 {
        stroke-miterlimit: 10;
      }

      .cls-3 {
        letter-spacing: -.02em;
      }

      .cls-3, .cls-4 {
        font-family: TimesNewRomanPS-ItalicMT, 'Times New Roman';
        font-size: 11.41px;
        font-style: italic;
      }

      .cls-2 {
        fill: none;
      }

      .cls-2, .cls-5 {
        stroke: #000;
        stroke-width: .25px;
      }

      .cls-5 {
        fill: #f2f2f2;
        stroke-linecap: round;
        stroke-linejoin: round;
      }
    </style>
  </defs>
  <g id="Layer_4" data-name="Layer 4">
    <polygon class="cls-5" points="14.2 19.76 35.36 64.3 63.34 23.7 14.2 19.76"/>
    <polygon class="cls-5" points="63.34 23.7 117.64 75.71 135.53 2.68 63.34 23.7"/>
    <polygon class="cls-5" points="35.36 64.3 66.62 141.27 117.64 75.71 35.36 64.3"/>
  </g>
  <g id="Layer_3" data-name="Layer 3">
    <line class="cls-2" x1="66.62" y1="141.27" x2="63.34" y2="23.7"/>
    <line class="cls-2" x1="117.64" y1="75.71" x2="14.2" y2="19.76"/>
    <line class="cls-2" x1="135.53" y1="2.68" x2="35.36" y2="64.3"/>
  </g>
  <g id="Layer_5" data-name="Layer 5">
    <circle class="cls-1" cx="14.2" cy="19.76" r="2.43"/>
    <circle class="cls-1" cx="66.62" cy="141.27" r="2.43"/>
    <circle class="cls-1" cx="135.53" cy="2.68" r="2.43"/>
    <circle class="cls-1" cx="117.64" cy="75.71" r="2.43"/>
    <circle class="cls-1" cx="35.36" cy="64.3" r="2.43"/>
    <circle class="cls-1" cx="63.34" cy="23.7" r="2.43"/>
  </g>
  <g id="Layer_6" data-name="Layer 6">
    <text class="cls-4" transform="translate(.28 22.19)"><tspan x="0" y="0">F</tspan></text>
    <text class="cls-4" transform="translate(140.6 9.6)"><tspan x="0" y="0">E</tspan></text>
    <text class="cls-4" transform="translate(73.45 143.69)"><tspan x="0" y="0">D</tspan></text>
    <text class="cls-4" transform="translate(60.92 17.33)"><tspan x="0" y="0">C</tspan></text>
    <text class="cls-4" transform="translate(121.15 82.48)"><tspan x="0" y="0">B</tspan></text>
    <text class="cls-3" transform="translate(23.11 71.97)"><tspan x="0" y="0">A</tspan></text>
  </g>
</svg>