<?xml version="1.0" encoding="UTF-8"?>
<svg xmlns="http://www.w3.org/2000/svg" viewBox="0 0 200.38 147.53">
  <defs>
    <style>
      .cls-1 {
        fill: gray;
        stroke: #3400ca;
      }

      .cls-1, .cls-2 {
        stroke-width: .5px;
      }

      .cls-1, .cls-2, .cls-3 {
        stroke-miterlimit: 10;
      }

      .cls-4 {
        letter-spacing: -.02em;
      }

      .cls-4, .cls-5 {
        font-family: TimesNewRomanPS-ItalicMT, 'Times New Roman';
        font-size: 11.41px;
        font-style: italic;
      }

      .cls-2 {
        stroke: #006837;
      }

      .cls-2, .cls-3 {
        fill: none;
      }

      .cls-3 {
        stroke: #000;
        stroke-width: .25px;
      }
    </style>
  </defs>
  <g id="Layer_2" data-name="Layer 2">
    <rect class="cls-2" x="99.27" y="131.45" width="9.93" height="9.93"/>
    <rect class="cls-2" x="89.34" y="131.45" width="9.93" height="9.93"/>
    <path class="cls-2" d="M99.27,15.37l8.58,12.54c-2.53,1.73-5.52,2.65-8.58,2.65s-6.05-.93-8.58-2.65l8.58-12.54Z"/>
  </g>
  <g id="Layer_1" data-name="Layer 1">
    <line class="cls-3" x1="99.27" y1="15.37" x2="13.06" y2="141.38"/>
    <line class="cls-3" x1="99.27" y1="15.37" x2="185.49" y2="141.38"/>
    <line class="cls-3" x1="13.06" y1="141.38" x2="185.49" y2="141.38"/>
    <line class="cls-3" x1="99.27" y1="15.37" x2="99.27" y2="141.38"/>
    <circle class="cls-1" cx="99.27" cy="15.37" r="2.65"/>
    <circle class="cls-1" cx="185.49" cy="141.38" r="2.65"/>
    <circle class="cls-1" cx="13.06" cy="141.38" r="2.65"/>
    <circle class="cls-1" cx="99.27" cy="141.38" r="2.65"/>
    <text class="cls-4" transform="translate(96.62 9.48)"><tspan x="0" y="0">A</tspan></text>
    <text class="cls-5" transform="translate(.26 144.03)"><tspan x="0" y="0">B</tspan></text>
    <text class="cls-5" transform="translate(192.36 144.03)"><tspan x="0" y="0">C</tspan></text>
    <text class="cls-5" transform="translate(78.9 138.73)"><tspan x="0" y="0">D</tspan></text>
  </g>
</svg>