<?xml version="1.0" encoding="UTF-8"?>
<svg xmlns="http://www.w3.org/2000/svg" viewBox="0 0 295.55 141.92">
  <defs>
    <style>
      .cls-1 {
        fill: gray;
        stroke: #3400ca;
        stroke-width: .5px;
      }

      .cls-1, .cls-2, .cls-3 {
        stroke-miterlimit: 10;
      }

      .cls-4 {
        letter-spacing: -.02em;
      }

      .cls-4, .cls-5 {
        font-family: TimesNewRomanPS-ItalicMT, 'Times New Roman';
        font-size: 11.41px;
        font-style: italic;
      }

      .cls-2 {
        stroke: #006837;
      }

      .cls-2, .cls-3 {
        fill: none;
        stroke-width: .25px;
      }

      .cls-3 {
        stroke: #000;
      }
    </style>
  </defs>
  <g id="Layer_2" data-name="Layer 2">
    <line class="cls-3" x1="106.16" y1="15.28" x2="170.05" y2="126.4"/>
    <line class="cls-3" x1="90.91" y1="97.97" x2="185.3" y2="43.71"/>
  </g>
  <g id="Layer_4" data-name="Layer 4">
    <rect class="cls-2" x="129.65" y="65.95" width="7.15" height="7.15" transform="translate(-16.92 75.66) rotate(-29.9)"/>
    <line class="cls-3" x1="126.75" y1="51.09" x2="90.93" y2="97.96"/>
    <line class="cls-3" x1="185.05" y1="43.85" x2="126.75" y2="51.09"/>
    <rect class="cls-2" x="129.65" y="65.95" width="7.15" height="7.15" transform="translate(-16.92 75.66) rotate(-29.9)"/>
    <rect class="cls-2" x="135.86" y="62.38" width="7.15" height="7.15" transform="translate(-14.32 78.28) rotate(-29.9)"/>
  </g>
  <g id="Layer_3" data-name="Layer 3">
    <circle class="cls-1" cx="126.75" cy="51.09" r="2.43"/>
    <circle class="cls-1" cx="170.05" cy="126.4" r="2.43"/>
    <circle class="cls-1" cx="106.26" cy="15.46" r="2.43"/>
    <circle class="cls-1" cx="185.05" cy="43.85" r="2.43"/>
    <circle class="cls-1" cx="90.93" cy="97.96" r="2.43"/>
    <circle class="cls-1" cx="138.1" cy="70.84" r="2.43"/>
  </g>
  <g id="Layer_5" data-name="Layer 5">
    <text class="cls-4" transform="translate(77.88 103.28)"><tspan x="0" y="0">A</tspan></text>
    <text class="cls-5" transform="translate(194.31 43.85)"><tspan x="0" y="0">B</tspan></text>
    <text class="cls-5" transform="translate(99.3 9.48)"><tspan x="0" y="0">C</tspan></text>
    <text class="cls-5" transform="translate(170.05 138.42)"><tspan x="0" y="0">D</tspan></text>
    <text class="cls-5" transform="translate(131.58 85.53)"><tspan x="0" y="0">E</tspan></text>
    <text class="cls-5" transform="translate(111.54 54.24)"><tspan x="0" y="0">F</tspan></text>
  </g>
</svg>