<?xml version="1.0" encoding="UTF-8"?>
<svg id="Layer_1" data-name="Layer 1" xmlns="http://www.w3.org/2000/svg" viewBox="0 0 260.27 141.48">
  <defs>
    <style>
      .cls-1 {
        stroke: #000;
      }

      .cls-1, .cls-2, .cls-3 {
        stroke-width: .5px;
      }

      .cls-1, .cls-2, .cls-3, .cls-4 {
        stroke-miterlimit: 10;
      }

      .cls-1, .cls-3, .cls-4 {
        fill: none;
      }

      .cls-2 {
        fill: gray;
        stroke: #3400ca;
      }

      .cls-5 {
        letter-spacing: -.02em;
      }

      .cls-5, .cls-6 {
        font-family: TimesNewRomanPS-ItalicMT, 'Times New Roman';
        font-size: 11.41px;
        font-style: italic;
      }

      .cls-3, .cls-4 {
        stroke: #666;
      }

      .cls-4 {
        stroke-width: .75px;
      }
    </style>
  </defs>
  <circle class="cls-3" cx="62.74" cy="78.74" r="62.49"/>
  <line class="cls-4" x1="61.78" y1="78.74" x2="114.22" y2="43.31"/>
  <line class="cls-1" x1="62.74" y1="78.74" x2="125.67" y2="78.74"/>
  <line class="cls-1" x1="39.36" y1="6.59" x2="102.29" y2="6.59"/>
  <line class="cls-1" x1="62.74" y1="78.74" x2="260.27" y2="78.74"/>
  <circle class="cls-2" cx="114.26" cy="43.28" r="2.43"/>
  <circle class="cls-2" cx="61.78" cy="78.74" r="2.43"/>
  <circle class="cls-2" cx="182.18" cy="78.74" r="2.43"/>
  <circle class="cls-2" cx="125.23" cy="78.74" r="2.43"/>
  <circle class="cls-2" cx="102.29" cy="6.59" r="2.43"/>
  <circle class="cls-2" cx="39.36" cy="6.59" r="2.43"/>
  <text class="cls-5" transform="translate(47.23 82.89)"><tspan x="0" y="0">A</tspan></text>
  <text class="cls-6" transform="translate(179.49 73.76)"><tspan x="0" y="0">B</tspan></text>
  <text class="cls-6" transform="translate(24.76 9.48)"><tspan x="0" y="0">C</tspan></text>
  <text class="cls-6" transform="translate(107.9 9.48)"><tspan x="0" y="0">G</tspan></text>
  <text class="cls-6" transform="translate(120.24 42.14)"><tspan x="0" y="0">D</tspan></text>
  <text class="cls-6" transform="translate(126.67 73.76)"><tspan x="0" y="0">E</tspan></text>
</svg>